<?xml version="1.0" standalone="no"?>
<!DOCTYPE svg PUBLIC "-//W3C//DTD SVG 1.1//EN" "http://www.w3.org/Graphics/SVG/1.1/DTD/svg11.dtd" >
<svg xmlns="http://www.w3.org/2000/svg">
<metadata>
Created by FontForge 20120731 at Wed Dec  2 19:56:18 2015
 By Ads
</metadata>
<defs>
<font id="iconfont" horiz-adv-x="1024" >
  <font-face 
    font-family="iconfont"
    font-weight="500"
    font-stretch="normal"
    units-per-em="1024"
    panose-1="2 0 6 3 0 0 0 0 0 0"
    ascent="896"
    descent="-128"
    x-height="792"
    bbox="34 -167 967 792"
    underline-thickness="50"
    underline-position="-100"
    unicode-range="U+0078-F006E"
  />
<missing-glyph horiz-adv-x="374" 
d="M34 0v682h272v-682h-272zM68 34h204v614h-204v-614z" />
    <glyph glyph-name=".notdef" horiz-adv-x="374" 
d="M34 0v682h272v-682h-272zM68 34h204v614h-204v-614z" />
    <glyph glyph-name=".null" horiz-adv-x="0" 
 />
    <glyph glyph-name="nonmarkingreturn" horiz-adv-x="341" 
 />
    <glyph glyph-name="x" unicode="x" horiz-adv-x="1001" 
d="M281 543q-27 -1 -53 -1h-83q-18 0 -36.5 -6t-32.5 -18.5t-23 -32t-9 -45.5v-76h912v41q0 16 -0.5 30t-0.5 18q0 13 -5 29t-17 29.5t-31.5 22.5t-49.5 9h-133v-97h-438v97zM955 310v-52q0 -23 0.5 -52t0.5 -58t-10.5 -47.5t-26 -30t-33 -16t-31.5 -4.5q-14 -1 -29.5 -0.5
t-29.5 0.5h-32l-45 128h-439l-44 -128h-29h-34q-20 0 -45 1q-25 0 -41 9.5t-25.5 23t-13.5 29.5t-4 30v167h911zM163 247q-12 0 -21 -8.5t-9 -21.5t9 -21.5t21 -8.5q13 0 22 8.5t9 21.5t-9 21.5t-22 8.5zM316 123q-8 -26 -14 -48q-5 -19 -10.5 -37t-7.5 -25t-3 -15t1 -14.5
t9.5 -10.5t21.5 -4h37h67h81h80h64h36q23 0 34 12t2 38q-5 13 -9.5 30.5t-9.5 34.5q-5 19 -11 39h-368zM336 498v228q0 11 2.5 23t10 21.5t20.5 15.5t34 6h188q31 0 51.5 -14.5t20.5 -52.5v-227h-327z" />
    <glyph glyph-name="uF0003" unicode="&#xf0003;" 
d="M848 187q23 0 43.5 9t35.5 24t24 36t9 43q0 47 -32.5 79.5t-79.5 32.5h-19q-6 17 -14 33l14 14q16 16 24.5 36t8.5 43q0 46 -33 79t-79 33q-23 0 -43.5 -8.5t-35.5 -24.5l-14 -14q-16 8 -33 14v19q0 23 -9 44t-24 36t-35.5 23.5t-43.5 8.5q-46 0 -79 -32.5t-33 -79.5v-19
q-16 -6 -33 -14l-13 14q-16 16 -36.5 24.5t-42.5 8.5q-47 0 -80 -33q-7 -8 -13.5 -17t-10.5 -19t-6 -21t-2 -22q0 -23 8.5 -43t23.5 -36l14 -14q-8 -17 -13 -33h-20q-18 0 -35 -5.5t-31 -16t-24 -24t-16 -30.5t-6 -36q0 -30 15 -56t41 -41t56 -15h20l6 -16q3 -8 7 -16
l-14 -14q-15 -16 -23.5 -36.5t-8.5 -42.5q0 -47 32.5 -79.5t79 -32.5t79.5 33l13 13q8 -3 16.5 -6.5t16.5 -6.5v-20q0 -46 33 -79t79.5 -33t79 33t32.5 79v20q17 6 33 13l14 -13q15 -16 35.5 -24.5t43.5 -8.5q46 0 79 33q16 15 24.5 35.5t8.5 43.5q0 46 -33 79l-14 14
q4 8 7.5 16t6.5 16h19zM789 101q17 -16 17 -39.5t-17 -39.5q-15 -16 -39 -16t-40 16l-43 43l-18 -10q-14 -8 -29.5 -14t-30.5 -11l-21 -6v-61q0 -23 -16.5 -39.5t-39.5 -16.5t-39.5 16.5t-16.5 39.5v61l-20 6q-16 5 -31 11t-29 14l-19 10l-43 -43q-16 -16 -39.5 -16
t-39.5 16t-16 39.5t16 39.5l43 43l-10 19q-16 28 -25 60l-6 20h-61q-23 0 -39.5 16.5t-16.5 40t16.5 39.5t39.5 16h61l6 21q9 32 25 60l10 18l-43 43q-16 17 -16 40t16 40q8 7 18.5 11t21 4t21 -4t18.5 -11l43 -44l19 11q14 8 29 14t31 11l20 5v61q0 24 16.5 40t39.5 16
t39.5 -16t16.5 -40v-61l21 -5q32 -10 60 -25l18 -11l43 44q16 15 40 15t39 -15q8 -8 12.5 -18.5t4.5 -21.5q0 -23 -17 -40l-43 -43l11 -18q7 -14 13.5 -29t10.5 -31l6 -21h61q23 0 39.5 -16t16.5 -39.5t-16.5 -40t-39.5 -16.5h-61l-6 -20q-9 -32 -24 -60l-11 -19zM512 467
q-27 0 -52.5 -8.5t-46.5 -24t-36.5 -36t-24 -46t-8.5 -53.5q0 -69 49.5 -118.5t119 -49.5t118.5 49.5t49 118.5q0 46 -22.5 84.5t-61 61t-84.5 22.5zM512.5 187q-30.5 0 -56.5 15t-41 41t-15 56q0 47 33 79.5t79 32.5q18 0 35.5 -5.5t31 -16t24 -24t16 -30.5t5.5 -36
q0 -30 -15 -56t-40.5 -41t-56 -15z" />
    <glyph glyph-name="uF0004" unicode="&#xf0004;" 
d="M952 -101l-238 209q50 52 78 119.5t28 142.5q0 102 -50.5 189t-138 137.5t-189.5 50.5q-44 0 -86.5 -9.5t-80 -28.5t-70 -44.5t-58.5 -58.5t-44.5 -70.5t-28.5 -79.5t-10 -86q0 -77 30 -147t80.5 -121t120.5 -80.5t147 -29.5q128 0 231 79l239 -211q8 -8 19.5 -8t20 8
t8.5 19.5t-8 19.5zM120 369.5q0 65.5 25.5 125t68.5 102.5t102.5 68.5t125.5 25.5q87 0 161.5 -43t117.5 -117t43 -161q0 -66 -25.5 -125.5t-69 -102.5t-103 -68.5t-125 -25.5t-125 25.5t-102.5 68.5t-68.5 102.5t-25.5 125z" />
    <glyph glyph-name="uF0005" unicode="&#xf0005;" 
d="M930 359l-339 353q-33 34 -79.5 34t-79.5 -34l-339 -353q-16 -16 -22.5 -33.5t-6 -28t4.5 -19.5q15 -34 58 -34h50v-272q0 -47 30.5 -83t76.5 -36h57h87v64v223v12v12q0 2 0.5 7.5t2.5 7.5t5 4.5t7.5 3.5t11.5 1h57h57q6 0 11 -1t8 -3.5t4.5 -4.5t2.5 -7.5t1 -7.5v-12
v-12v-223v-64h87h57q46 0 76.5 36t30.5 83v272h50q42 0 58 34q1 4 2 8.5t1.5 10.5t-1 13t-4.5 15t-9 17t-14 17zM897 299h-43h-29h-34v-327q0 -24 -14.5 -43.5t-36.5 -19.5h-89v231q0 104 -82 104h-57h-57q-83 0 -83 -104v-231h-88q-12 0 -21.5 5.5t-16 14.5t-10.5 20.5
t-4 22.5v327h-34h-28h-43q-1 0 -2 2q0 2 -1 2q1 1 2 3.5t2 4.5t3 5t4 5l339 352q16 17 38 17q21 0 38 -17l338 -352q3 -3 5 -6t4 -7t2 -5l-1 -2z" />
    <glyph glyph-name="uF0007" unicode="&#xf0007;" 
d="M819 364q-8 0 -14 -4t-10 -10.5t-4 -14.5v-357q0 -29 -19.5 -50t-47.5 -21h-520q-10 0 -20 2.5t-19 7.5t-17 11.5t-14 14t-9.5 17t-3.5 18.5v522q0 28 27 53.5t56 25.5h297q5 0 9 1.5t8 4t6.5 6t4 7.5t1.5 9q0 12 -8.5 20t-20.5 8h-297q-58 0 -98.5 -39t-40.5 -96v-522
q0 -37 18.5 -66.5t50 -45t70.5 -15.5h520q57 0 90 34.5t33 92.5v357q0 12 -8 20.5t-20 8.5zM934 680l-43 43q-24 24 -60.5 24t-60.5 -24l-81 -95l-429 -411v-10v-2l-54 -183l40 -35l173 61l2 -1h8l410 430l95 78q16 16 22 39t0 46.5t-22 39.5zM282 62l26 81l50 -51zM409 122
l-74 74l383 382l72 -72zM893 599l-57 -58l-83 84l57 57q9 8 20.5 8t20.5 -8l42 -43q9 -8 9 -20t-9 -20z" />
    <glyph glyph-name="uF0008" unicode="&#xf0008;" 
d="M344 21q12 0 20 8t8 20v306q0 8 -3.5 14.5t-10 10t-14.5 3.5q-5 0 -10.5 -2t-9 -6t-5.5 -9t-2 -11v-306q0 -6 2 -11t5.5 -9t9 -6t10.5 -2zM512 21q7 0 13.5 3.5t10.5 10t4 14.5v306q0 6 -2.5 11t-6 9t-8.5 6t-11 2q-12 0 -20 -8t-8 -20v-306q0 -6 2 -11t6 -9t9 -6t11 -2z
M679.5 21q11.5 0 19.5 8t8 20v306q0 6 -2 11t-6 9t-9 6t-11 2q-11 0 -19.5 -8t-8.5 -20v-306q0 -12 8.5 -20t20 -8zM819 662h-116q-9 37 -39 60.5t-68 23.5h-168q-13 0 -25 -3t-23 -8t-20.5 -12.5t-17 -17t-13 -20.5t-8.5 -23h-116q-30 0 -56 -15t-41 -40.5t-15 -55.5v-28
h28v-28h56v-530q0 -46 32.5 -79t79.5 -33h446q46 0 79 33t33 79v530h55v28h28v28q0 46 -32.5 78.5t-78.5 32.5zM428 690h168q31 0 48 -28h-264q16 28 48 28zM791 -35q0 -15 -7.5 -28t-20.5 -20.5t-28 -7.5h-446q-24 0 -42 16.5t-18 39.5l4 530h558v-530zM149 551
q0 15 7.5 28t20.5 20.5t28 7.5h614q23 0 39.5 -16.5t16.5 -39.5h-726z" />
    <glyph glyph-name="uF0011" unicode="&#xf0011;" 
d="M511 735q-90 0 -173 -35.5t-142.5 -95.5t-95 -142.5t-35.5 -173t35.5 -173.5t95 -142.5t142.5 -95t173 -35.5q61 0 119 16t106.5 45t90 70t70.5 90t45 107t16 118.5t-16 118.5t-45 107t-70.5 90t-90 70t-106.5 45t-119 16zM511 -102q-106 0 -196 52t-142 142t-52 196
t52 196t142 142.5t196 52.5t196 -52.5t142.5 -142.5t52.5 -196t-52.5 -196t-142.5 -142t-196 -52zM670 448q-8 8 -19.5 8t-19.5 -8l-120 -120l-120 120q-8 8 -19.5 8t-19.5 -8q-5 -6 -7 -13t0 -14t7 -13l120 -120l-120 -119q-5 -6 -7 -13t0 -14.5t7 -12.5q4 -4 9 -6t11 -2
q11 0 19 8l120 120l120 -120q4 -4 9 -6t11 -2q11 0 19.5 8t8.5 19.5t-9 20.5l-119 119l119 120q9 8 9 19.5t-9 20.5z" />
    <glyph glyph-name="uF0012" unicode="&#xf0012;" 
d="M687 419l-226 -230l-125 125q-6 5 -13 7t-14 0t-13 -7q-8 -9 -8 -20.5t8 -19.5l145 -145l6 -4q3 -2 6.5 -3t7.5 -1q12 0 20 8l245 251q9 9 8.5 20.5t-8.5 19.5q-4 4 -9 6t-10.5 2t-10.5 -2t-9 -7zM511.5 735q-90.5 0 -173.5 -35.5t-142.5 -95.5t-95 -142.5t-35.5 -173.5
q0 -72 22.5 -140t64 -123t96 -96.5t123 -64t140.5 -22.5q91 0 173.5 35.5t142.5 95t95.5 142.5t35.5 173.5t-35.5 173t-95.5 142.5t-142.5 95.5t-173 35.5zM511 -102q-79 0 -151.5 31t-124.5 83t-83 124.5t-31 151.5q0 64 19.5 123.5t55.5 107.5t84 84.5t108 56t123 19.5
q106 0 196 -52.5t142.5 -142.5t52.5 -196t-52.5 -196t-142.5 -142t-196 -52z" />
    <glyph glyph-name="uF0014" unicode="&#xf0014;" 
d="M864 481l3 7l-21 18l-119 107l-139 126l-6 -3q-22 10 -41 10h-335q-15 0 -28 -7.5t-20.5 -20.5t-7.5 -28v-782q0 -23 16.5 -39t39.5 -16h614q11 0 21.5 4.5t18 11.5t12 17.5t4.5 21.5v531q0 10 -3 21t-9 21zM597 655l178 -160h-178v160zM820 -92h-614v782h335v-223
l28 -28h251v-531z" />
    <glyph glyph-name="uF0015" unicode="&#xf0015;" 
d="M196 413l196 -53l7 -1q22 0 27 21q2 7 0 14.5t-7 12.5t-13 7l-195 53q-8 2 -15 0t-12.5 -7.5t-7.5 -13t0 -14.5t7.5 -12.5t12.5 -6.5zM196 273l196 -53q2 0 3.5 -0.5t3.5 -0.5q22 0 27 21q2 7 0 14.5t-7 12.5t-13 7l-195 53q-12 3 -22 -3t-13 -17q-1 -6 0 -11.5t3.5 -10
t7 -8t9.5 -4.5zM196 133l196 -53h7q22 0 27 20q3 11 -3 21.5t-17 13.5l-195 52q-8 2 -15 0t-12.5 -7t-7.5 -13q-3 -11 3 -21t17 -13zM947 687.5q-11 8.5 -24 4.5l-412 -110l-412 110q-13 4 -24 -5q-6 -4 -8.5 -9.5t-2.5 -12.5v-671q0 -21 20 -27l420 -112q3 -1 7 -1l7 1
l420 112q20 6 20 27v671q0 14 -11 22.5zM483 -82l-363 98v613l363 -98v-613zM902 16l-363 -98v613l363 98v-613zM623 359q2 0 3.5 0.5t3.5 0.5l196 53q5 1 9.5 4.5t7 8t3.5 10t-1 11.5q-3 11 -13 17t-21 3l-195 -53q-12 -3 -17.5 -13t-2.5 -21q5 -21 27 -21zM623 219
q3 0 7 1l196 53q3 1 6.5 3t6 4.5t4.5 5.5t3 6v8q1 3 -1 7q-3 11 -13 17t-21 3l-195 -53q-12 -3 -17.5 -13t-2.5 -21q1 -6 5 -11t10 -7.5t12 -2.5zM623 80h7l196 53q11 3 16.5 13t2.5 21t-13 17t-21 3l-195 -52q-12 -3 -17.5 -13.5t-2.5 -21.5q5 -20 27 -20z" />
    <glyph glyph-name="uF0016" unicode="&#xf0016;" 
d="M846 747h-669q-31 0 -56.5 -15t-40.5 -40.5t-15 -56.5v-669q0 -46 32.5 -79t79.5 -33h669q30 0 56 15t41 40.5t15 56.5v669q0 46 -33 79t-79 33zM902 -34q0 -15 -7.5 -28t-20.5 -20.5t-28 -7.5h-669q-24 0 -40 16.5t-16 39.5v669q0 15 7.5 28t20 20.5t28.5 7.5h669
q9 0 17.5 -3t15.5 -8t12 -12t8 -15.5t3 -17.5v-669zM762 580h-139q-5 0 -9 -1.5t-7.5 -4t-6 -6t-4 -8t-1.5 -8.5q0 -8 3.5 -14.5t10 -10t14.5 -3.5h72l-120 -120q-8 -8 -8 -19.5t8 -20.5q3 -2 6.5 -4t6.5 -3t7 -1q12 0 20 8l120 120v-72q0 -11 8 -19.5t19.5 -8.5t19.5 8.5
t8 19.5v140q0 7 -3.5 13.5t-10 10.5t-14.5 4zM328 524h72q11 0 19.5 8t8.5 20q0 4 -1.5 8.5t-4 8t-6 6t-8 4t-8.5 1.5h-140q-4 0 -8.5 -1.5t-8 -4t-6 -6t-4 -8t-1.5 -8.5v-140q0 -7 4 -13.5t10.5 -10.5t13.5 -4q12 0 20 8.5t8 19.5v72l120 -120q2 -2 4.5 -3.5t5 -2.5t5 -1.5
t5.5 -0.5q5 0 10 2t9 6q9 9 9 20.5t-9 19.5zM408 237l-120 -120v72q0 11 -8 19.5t-19.5 8.5t-20 -8.5t-8.5 -19.5v-140q0 -11 8.5 -19.5t19.5 -8.5h140q4 0 8.5 1.5t8 4t6 6t4 8t1.5 8.5q0 12 -8.5 20t-19.5 8h-72l119 120q9 8 9 19.5t-9 20.5q-5 5 -12 7t-14.5 0t-12.5 -7z
M762 217q-7 0 -13.5 -4t-10 -10.5t-3.5 -13.5v-72l-120 120q-8 8 -20 8t-20 -8.5t-8 -20t8 -19.5l120 -120h-72q-5 0 -9 -1.5t-7.5 -4t-6 -6t-4 -7.5t-1.5 -9q0 -11 8 -19.5t20 -8.5h139q12 0 20 8.5t8 19.5v140q0 11 -8 19.5t-20 8.5z" />
    <glyph glyph-name="uF001A" unicode="&#xf001a;" 
d="M848 748h-672q-23 0 -44 -9t-36 -24t-23.5 -35.5t-8.5 -43.5v-672q0 -46 32.5 -79t79.5 -33h672q46 0 79 33t33 79v672q0 46 -33 79t-79 33zM904 -36q0 -23 -16.5 -39.5t-39.5 -16.5h-672q-23 0 -39.5 16.5t-16.5 39.5v672q0 11 4.5 21.5t12 18t17.5 12t22 4.5h672
q23 0 39.5 -16.5t16.5 -39.5v-672zM835 267l-84 56q-8 5 -17 4.5t-16 -5.5l-133 -107l-197 136h-1l-7 3q-1 1 -2 1h-1q-2 1 -7 1q0 -1 -2 0h-1q-1 -1 -3 -2h-1q-5 -1 -7 -3l-168 -112q-9 -6 -11.5 -17.5t3.5 -21.5q4 -5 10.5 -8.5t13.5 -3.5q4 0 8 1t7 4l152 101l433 -297
q7 -5 16 -5q14 0 23 12q6 10 4 21.5t-11 17.5l-203 139l104 83l67 -44q7 -5 16 -5q15 0 23 12q6 10 4 21.5t-12 17.5zM582 384q52 0 89 37t37 89t-37 89t-89 37t-89 -37t-37 -89t37 -89t89 -37zM582 580q19 0 35 -9.5t25.5 -25.5t9.5 -35q0 -29 -20.5 -49.5t-49.5 -20.5
q-19 0 -35.5 9.5t-25.5 25.5t-9 35q0 29 20.5 49.5t49.5 20.5z" />
    <glyph glyph-name="uF001C" unicode="&#xf001c;" 
d="M846 594h-307q-11 0 -21.5 3.5t-18 9t-12 13.5t-4.5 16q0 40 -33 69t-79 29h-195q-46 0 -79 -29t-33 -69v-767h28v-28h837v28h28v613q0 47 -32.5 79.5t-78.5 32.5zM176 678h195q11 0 21.5 -3.5t18 -9t12 -13.5t4.5 -16q0 -40 33 -69t79 -29h307q23 0 39 -16t16 -40h-781
v154q0 11 7.5 20.5t20.5 15.5t28 6zM901 427v-530h-781v530h781z" />
    <glyph glyph-name="uF001D" unicode="&#xf001d;" 
d="M931 272v0h-56q-12 0 -20 8t-8 20q0 3 0.5 5.5t1.5 5t2.5 5t3.5 4.5t4 3.5t4.5 2.5t5.5 1.5t6 0.5h56v0q11 0 19.5 -8t8.5 -20t-8.5 -20t-19.5 -8zM819 608v28l56 56l28 -28v-28l-56 -56zM693 192q-2 -1 -3.5 -1.5t-3.5 -1t-3.5 -1t-3.5 -0.5q-12 0 -20 8t-8 20
q0 8 3.5 14t10 10t14.5 4v1q24 5 40 24.5t16 44.5t-16 44.5t-40 24.5v1q-5 0 -9 1.5t-7.5 4t-6 6t-4 7.5t-1.5 9q0 6 2 11t6 9t9 6t11 2q2 0 4.5 -0.5t5 -1.5t4.5 -2q42 -10 70 -44t28 -78t-28 -78t-70 -44zM567 -92h-8q-5 0 -16.5 2.5t-18.5 7.5l-265 186h-140
q-16 0 -28.5 7.5t-20 20.5t-7.5 28v280q0 15 7.5 28t20 20.5t28.5 7.5h140l265 186q8 5 15.5 7.5t16.5 2.5h8q4 0 15.5 -2.5t20 -7.5t16 -17t7.5 -29v-672q0 -23 -16.5 -39.5t-39.5 -16.5zM567 580q0 39 -16 36q-6 -2 -12 -8l-252 -168h-140v0v0q-4 0 -7 -1l-6 -2
q-3 -1 -5 -3t-4 -4.5t-3.5 -5t-2 -6t-0.5 -6.5v-224q0 -12 8 -20t20 -8v0h140l252 -168q0 -1 1.5 -2t5.5 -3.5t7 -4t6.5 -1.5t5.5 2.5t2 8.5v588zM903 -36v-28l-28 -28l-56 56v28l28 28z" />
    <glyph glyph-name="uF0025" unicode="&#xf0025;" 
d="M512 -167q-93 0 -177 36t-145 97t-97 145t-36 177t36 177t97 145t145 97t177 36q74 0 143.5 -23t125.5 -65t98 -98t65 -125.5t23 -143.5q0 -93 -36 -177t-97 -145t-145 -97t-177 -36zM512 704q-113 0 -209 -56t-151.5 -151.5t-55.5 -208.5q0 -68 21 -131.5t59.5 -114.5
t89.5 -89.5t114.5 -59.5t131.5 -21q113 0 209 56t151.5 151.5t55.5 208.5q0 68 -21 131.5t-59.5 114.5t-89.5 89.5t-114.5 59.5t-131.5 21zM827 349l-69 -221q-6 -32 -33.5 -54.5t-60.5 -22.5h-350q-33 0 -56 23t-23 56v218q0 10 2.5 20.5t8 19t12.5 16t16 12.5t19 8t21 3
h96l124 188q4 7 12 9.5t15 -1.5l57 -29q7 -4 11 -12t2 -16l-20 -139h152q21 0 37.5 -10.5t23.5 -28.5t3 -39zM560 580l-108 -153h120l18 137zM784 379q-7 8 -21 8l-200 -1l8 41h-118l-27 -40h-112q-17 0 -28.5 -11.5t-11.5 -27.5v-218q0 -8 3 -15.5t8.5 -12.5t13 -8.5
t15.5 -3.5h73v297h40v-297h237q19 0 35.5 14t19.5 32l69 221q3 13 -4 22zM472 455l-23 -34l120 -5l7 40z" />
    <glyph glyph-name="uF0034" unicode="&#xf0034;" 
d="M858 582v2q-1 5 -2 9q-1 0 -1.5 1t-0.5 2h-1q0 1 -1 2v0q0 1 -1 1v1h-1v1h-1l-159 157q-8 8 -18 9v0h-2v0h-1h-480q-8 0 -15 -4t-10.5 -10.5t-3.5 -14.5v-874q0 -12 8.5 -20.5t20.5 -8.5h640q12 0 20.5 8.5t8.5 20.5v717v1zM698 668l60 -58h-60v58zM800 -107h-582v816
h422v-128q0 -8 4 -15t10.5 -11t14.5 -4h131v-658zM718 296h-403q-4 0 -7 -0.5t-6 -2t-5.5 -3.5t-4.5 -4.5t-3.5 -5.5t-2.5 -6.5t-1 -6.5q0 -12 8.5 -20.5t21.5 -8.5h403q6 0 11.5 2t9 6t6 9.5t2.5 11.5q0 12 -8.5 20.5t-20.5 8.5zM285 389q0 -12 8.5 -20.5t21.5 -8.5h403
q12 0 20.5 8.5t8.5 20.5t-8.5 20.5t-20.5 8.5h-403q-13 0 -21.5 -8.5t-8.5 -20.5zM718 174h-403q-8 0 -15 -4t-11 -10.5t-4 -14.5t4 -15t11 -11t15 -4h403q6 0 11.5 2.5t9 6.5t6 9.5t2.5 11.5q0 12 -8.5 20.5t-20.5 8.5zM718 51h-403q-8 0 -15 -3.5t-11 -10.5t-4 -15
q0 -6 2.5 -11t6.5 -9t9.5 -6.5t11.5 -2.5h403q12 0 20.5 8.5t8.5 20.5t-8.5 20.5t-20.5 8.5z" />
    <glyph glyph-name="uF003B" unicode="&#xf003b;" 
d="M512 -36q-9 0 -17.5 0.5t-16.5 1t-16 1.5l-18 2l-16 2l-197 -119v199q-51 36 -89 83.5t-58.5 104.5t-20.5 118q0 107 60 197.5t163.5 143t225.5 52.5t225.5 -52.5t163.5 -143t60 -197.5q0 -80 -35.5 -152.5t-95.5 -125.5t-143.5 -84t-174.5 -31zM512 694
q-107 0 -197.5 -45t-143 -122.5t-52.5 -169.5q0 -84 45 -156.5t123 -119.5l-2 -130l132 80q48 -11 95 -11q80 0 153 27t125.5 72t83.5 107.5t31 130.5q0 140 -115 238.5t-278 98.5zM737 301q-24 0 -40.5 16.5t-16.5 39.5t16.5 39.5t40 16.5t40 -16.5t16.5 -39.5
q0 -35 -32 -50q-12 -6 -24 -6zM512 301q-11 0 -21.5 4.5t-18 12t-12 18t-4.5 22t4.5 21.5t12 17.5t18 12t21.5 4.5q23 0 39.5 -16.5t16.5 -39.5q0 -35 -31 -50q-12 -6 -25 -6zM287 301q-23 0 -39.5 16.5t-16.5 39.5t16.5 39.5t40 16.5t40 -16.5t16.5 -39.5q0 -11 -4.5 -21.5
t-12 -18t-18 -12t-22.5 -4.5z" />
    <glyph glyph-name="uF003D" unicode="&#xf003d;" 
d="M820 -1v-159l-157 97q-17 -3 -33.5 -4.5t-33.5 -1.5q-79 0 -149.5 28.5t-121.5 78.5q25 -2 33 -2q22 0 46 2q85 -58 192 -58q35 0 72 8l55 -36l41 -28v99q64 37 102 95.5t38 127.5q0 87 -60 157q2 14 3 27t1 26q0 3 -2 24q36 -29 61 -65t39 -78.5t14 -86.5
q0 -75 -37.5 -140.5t-102.5 -110.5zM428 99q-7 0 -14 0.5t-14 0.5l-12 2q-7 0 -13.5 1t-13.5 2l-157 -97v159q-65 44 -102.5 109.5t-37.5 140.5q0 87 49 160t132.5 116t182.5 43t182.5 -43t132.5 -116t49 -159.5t-49 -160t-132.5 -116t-182.5 -42.5zM428 680
q-127 0 -217.5 -78t-90.5 -188q0 -69 38 -127.5t102 -95.5v-99l41 27l55 37q12 -3 23.5 -4.5t24 -2.5t24.5 -1q128 0 218 78t90 188t-90 188t-218 78zM610 372q-17 0 -29.5 12.5t-12.5 29.5t12.5 29.5t29.5 12.5t29.5 -12.5t12.5 -29.5t-12.5 -29.5t-29.5 -12.5zM442 372
q-17 0 -29.5 12.5t-12.5 29.5q0 8 3.5 16t9 13.5t13.5 9t16 3.5q11 0 21 -5.5t15.5 -15.5t5.5 -21q0 -17 -12.5 -29.5t-29.5 -12.5zM274 372q-11 0 -21 5.5t-15.5 15.5t-5.5 21q0 17 12.5 29.5t30 12.5t29.5 -12.5t12 -29.5t-12 -29.5t-30 -12.5z" />
    <glyph glyph-name="uF0047" unicode="&#xf0047;" 
d="M942 -16v2v4q0 63 -82.5 125.5t-206.5 89.5q55 64 55 155v162q0 63 -27 114.5t-75 80.5t-107 29q-89 0 -149 -64t-60 -160v-162q0 -48 16 -89t45 -72q-114 -29 -192.5 -86.5t-78.5 -123.5v-6q-5 -45 32 -64q39 -21 100 -35.5t137.5 -22t161.5 -7.5t162 7.5t137.5 22
t99.5 35.5q37 19 32 65zM346 360v162q0 72 44 119.5t109.5 47.5t109.5 -47.5t44 -119.5v-162q0 -47 -20 -85.5t-55.5 -60t-78.5 -21.5q-65 0 -109 47.5t-44 119.5zM885 -31q-35 -18 -92 -31.5t-129.5 -20.5t-152.5 -7q-120 0 -220.5 16t-153.5 43l-1 1h-1v8q1 3 1 6v5
q0 42 80 94.5t195 72.5q42 -20 88 -20q50 0 94 23q122 -17 207.5 -71.5t85.5 -97.5q0 -4 1 -11l1 -8z" />
    <glyph glyph-name="uF004A" unicode="&#xf004a;" 
d="M853 -154h-682q-47 0 -80 33t-33 80v682q0 47 33 80t80 33h682q31 0 57 -15t41 -41t15 -57v-682q0 -31 -15 -57t-41 -41t-57 -15zM909 641q0 15 -7.5 28t-20.5 20.5t-28 7.5h-682q-23 0 -39.5 -16.5t-16.5 -39.5v-682q0 -23 16.5 -39.5t39.5 -16.5h682q11 0 21.5 4.5
t18 12t12 18t4.5 21.5v682zM824.5 328q-11.5 0 -20 8.5t-8.5 20.5l1 186l-193 -192l-40 40l193 193h-188q-12 0 -20.5 8.5t-8.5 20t8.5 20t20.5 8.5h254q4 0 8 -1t7 -3t6 -5q2 -2 3.5 -4t2.5 -4.5t2 -5.5t1 -6v-255q0 -12 -8.5 -20.5t-20 -8.5zM455 -41h-254q-12 0 -21 9
q-2 2 -3.5 4t-2.5 4.5t-2 5.5t-1 6v255q0 12 8.5 20.5t20 8.5t20 -8.5t8.5 -20.5l-1 -186l193 192l40 -40l-193 -193h188q12 0 20.5 -8.5t8.5 -19.5q0 -8 -4 -14.5t-10.5 -10.5t-14.5 -4z" />
    <glyph glyph-name="uF004C" unicode="&#xf004c;" 
d="M850 -151h-676q-23 0 -44 9t-36 24t-24 36t-9 44v676q0 47 33 80t80 33h676q18 0 35.5 -6t31.5 -16t24 -24t16 -31.5t6 -35.5v-676q0 -47 -33 -80t-80 -33zM906 638q0 23 -16.5 39.5t-39.5 16.5h-676q-23 0 -39.5 -16.5t-16.5 -39.5v-676q0 -23 16.5 -39.5t39.5 -16.5
h676q23 0 39.5 16.5t16.5 39.5v676zM822 328h-253q-12 0 -20 9q-3 2 -5 5t-3 6.5t-1 7.5v254q0 12 8.5 20t20 8t20 -8t8.5 -20l-1 -185l191 191l40 -40l-192 -191h187q2 0 4.5 -0.5t5 -1.5t4.5 -3l4 -2l3.5 -3.5t2.5 -4t2 -4.5t1.5 -4.5t0.5 -5.5t-1 -7t-3 -7t-4.5 -5.5
t-5.5 -4.5t-6.5 -3t-7.5 -1zM456 -38q-12 0 -20.5 8t-8.5 20l1 185l-191 -191l-40 40l192 191h-187q-12 0 -20 8.5t-8 20.5q0 5 2 10.5t6 9t9 6t11 2.5h253q4 0 7.5 -1t6.5 -3t6 -5q2 -1 3 -3l4 -6q1 -2 1.5 -4.5t0.5 -5.5v-254q0 -6 -2.5 -11t-6 -9t-9 -6t-10.5 -2z" />
    <glyph glyph-name="uF005C" unicode="&#xf005c;" 
d="M931 268h-580q-13 0 -22.5 9.5t-9.5 22.5t9.5 22.5t22.5 9.5h580q7 0 12.5 -2.5t10 -7t7 -10t2.5 -12.5q0 -24 -23 -31q-5 -1 -9 -1zM931 526h-580q-9 0 -16.5 4t-11.5 11.5t-4 16.5q0 13 9.5 22.5t22.5 9.5h580q13 0 22.5 -9.5t9.5 -23t-9.5 -22.5t-22.5 -9zM125 -22
q-26 0 -45 18.5t-19 45.5t19 46t45 19q18 0 32.5 -9t23.5 -23.5t9 -32.5q0 -39 -36 -57q-14 -7 -29 -7zM125 236q-26 0 -45 18.5t-19 45.5t19 45.5t45.5 18.5t45.5 -18.5t19 -45.5q0 -18 -9 -32.5t-23.5 -23t-32.5 -8.5zM125.5 493q-17.5 0 -32.5 9t-23.5 23.5t-8.5 32.5
q0 27 19 45.5t45 18.5q18 0 32.5 -8.5t23.5 -23.5t9 -32.5t-9 -32t-23.5 -23.5t-32 -9zM351 74h580q13 0 22.5 -9t9.5 -23q0 -9 -4 -16t-11.5 -11.5t-16.5 -4.5h-580q-13 0 -22.5 9.5t-9.5 22.5q0 9 4 16.5t11.5 11.5t16.5 4z" />
    <glyph glyph-name="uF006C" unicode="&#xf006c;" 
d="M739 175l54 -329l-281 155l-281 -155l54 329l-227 232l313 47l141 300l141 -300l313 -47zM618 404l-106 227l-107 -227l-245 -31l182 -186l-41 -238l211 118l208 -119l-38 238l180 184z" />
    <glyph glyph-name="uF006D" unicode="&#xf006d;" 
d="M902 328l-348 -444q-29 -29 -42.5 -29t-42.5 29l-347 444q-27 43 -41.5 81.5t-14.5 86.5q0 49 16.5 94.5t45.5 80t71 55.5t90 21q129 0 222 -126q46 58 102 92t122 34q64 0 115.5 -35.5t79.5 -92.5t28 -123q0 -34 -7 -64.5t-19 -54.5t-30 -49zM735 691q-55 0 -117 -47.5
t-106 -106.5q-28 37 -62 70t-78.5 59t-82.5 25q-73 0 -120.5 -58t-47.5 -137q0 -30 3.5 -48t15.5 -42.5t37 -63.5l307 -390q20 -20 26.5 -20t29.5 21l307 387q35 46 45.5 78t10.5 78q0 79 -48.5 137t-119.5 58z" />
    <glyph glyph-name="uF006E" unicode="&#xf006e;" 
d="M901 327l-348 -444q-29 -29 -42.5 -29t-42.5 29l-347 444q-17 28 -28 49.5t-19.5 53.5t-8.5 65q0 101 63.5 176t159.5 75q129 0 222 -126q99 126 224 126q96 0 159.5 -75t63.5 -176q0 -26 -4 -49t-11.5 -44t-17.5 -39t-23 -36z" />
  </font>
</defs>
</svg>
